<svg xmlns="http://www.w3.org/2000/svg" width="24" height="24" viewBox="0 0 24 24">
    <g fill="none" fill-rule="evenodd">
        <g>
            <g>
                <path d="M0 0L24 0 24 24 0 24z" transform="translate(-959.000000, -358.000000) translate(959.000000, 358.000000)"/>
                <path fill="#8F949A" fill-rule="nonzero" d="M16 1H4c-1.1 0-2 .9-2 2v14h2V3h12V1zm3 4H8c-1.1 0-2 .9-2 2v14c0 1.1.9 2 2 2h11c1.1 0 2-.9 2-2V7c0-1.1-.9-2-2-2zm0 16H8V7h11v14z" transform="translate(-959.000000, -358.000000) translate(959.000000, 358.000000)"/>
            </g>
        </g>
    </g>
</svg>
