<svg xmlns="http://www.w3.org/2000/svg" width="20" height="20" viewBox="0 0 20 20">
    <g fill="none" fill-rule="evenodd">
        <g>
            <g>
                <path d="M0 0L20 0 20 20 0 20z" transform="translate(-594.000000, -408.000000) translate(594.000000, 408.000000)"/>
                <path fill="#2E76F4" fill-rule="nonzero" d="M15.833 15.833H4.167V4.167H10V2.5H4.167c-.925 0-1.667.75-1.667 1.667v11.666c0 .917.742 1.667 1.667 1.667h11.666c.917 0 1.667-.75 1.667-1.667V10h-1.667v5.833zM11.667 2.5v1.667h2.991l-8.191 8.191 1.175 1.175 8.191-8.191v2.991H17.5V2.5h-5.833z" transform="translate(-594.000000, -408.000000) translate(594.000000, 408.000000)"/>
            </g>
        </g>
    </g>
</svg>
